Fly_normalized_Motion_pl08
version=1
nRows=21
nColumns=43
inDegrees=yes
endheader
time		pelvis_tilt		pelvis_list		pelvis_rotation		pelvis_tx		pelvis_ty		pelvis_tz		hip_flexion_r		hip_adduction_r		hip_rotation_r		knee_angle_r		ankle_angle_r		subtalar_angle_r		mtp_angle_r		hip_flexion_l		hip_adduction_l		hip_rotation_l		knee_angle_l		ankle_angle_l		subtalar_angle_l		mtp_angle_l		lumbar_extension		lumbar_bending		lumbar_rotation		neck_flexion		neck_lateral_bending		neck_rotation		arm_flex_r		arm_add_r		arm_rot_r		elbow_flex_r		pro_sup_r		wrist_flex_r		wrist_dev_r		hand_finger_flex_r		arm_flex_l		arm_add_l		arm_rot_l		elbow_flex_l		pro_sup_l		wrist_flex_l		wrist_dev_l		hand_finger_flex_l		
1.835000		2.268176		-18.181546		87.875582		-0.010085		1.650082		1.359040		67.128094		-8.118316		6.431437		-125.977168		-2.686007		3.691619		30.911468		54.890448		-11.551101		5.949821		-129.684793		-3.034403		4.800955		22.656421		-30.468258		-1.162270		2.597142		9.355975		6.996420		1.031968		106.387812		-7.326776		29.177222		55.755950		92.392848		-1.459770		-11.396636		-28.590181		103.371406		-4.192427		17.782656		50.882928		106.472391		-21.722386		-4.485533		3.193634		
1.838914		2.151525		-17.924545		87.634701		-0.009932		1.650133		1.351332		66.940762		-8.017887		6.055140		-125.370568		-1.775101		3.220836		30.946912		54.508570		-11.485150		5.957765		-128.972387		-5.210239		5.290632		22.605049		-30.257859		-1.370205		2.737788		8.714653		6.991081		1.061239		105.964212		-7.662608		29.640553		55.693807		92.780054		-1.115217		-11.472449		-28.328875		102.665112		-4.421762		17.727936		50.950645		106.667821		-21.538602		-4.523652		3.126436		
1.842828		2.078248		-17.629321		87.392591		-0.009860		1.650133		1.343616		66.733772		-7.947747		5.585764		-124.725424		-1.039954		2.502435		30.879176		54.139140		-11.443969		5.936741		-128.239775		-7.033690		5.643404		22.588207		-30.105657		-1.521785		2.938286		8.180874		6.970138		1.092168		105.454775		-8.006781		29.987354		55.660086		93.242781		-0.705823		-11.669584		-28.058501		101.903920		-4.679638		17.662286		51.038539		106.896057		-21.256767		-4.614108		3.089752		
1.846742		2.030362		-17.274951		87.144827		-0.009642		1.650263		1.336078		66.492199		-7.747146		5.015922		-123.994786		-0.739974		0.637784		30.492815		53.767035		-11.439792		5.887117		-127.415541		-8.280351		6.249718		22.822739		-30.064110		-1.672946		3.120734		7.741926		6.933266		1.129215		104.885004		-8.184447		29.927645		55.456459		94.164509		-0.079150		-12.012651		-27.618532		101.147921		-4.881755		17.309207		51.042103		107.346271		-20.595682		-4.678162		3.027551		
1.850657		2.003083		-16.986071		86.984418		-0.009590		1.650305		1.328505		66.352091		-7.615898		4.405895		-123.184062		-0.985263		-1.235223		29.620105		53.483632		-11.353300		5.855479		-126.580965		-8.387582		7.074540		23.652717		-29.985350		-1.757240		3.266352		7.349711		6.868923		1.190763		104.130593		-8.412012		29.577826		55.478409		95.653174		0.651643		-12.335586		-27.056910		100.234508		-5.191482		16.925179		51.320428		108.245275		-19.625006		-4.700597		2.658901		
1.854571		1.770533		-16.734279		86.822817		-0.009912		1.650137		1.320860		66.299755		-7.709586		4.081276		-122.386101		-0.775057		-2.343945		29.355748		53.235622		-11.019781		5.544407		-125.682638		-7.923529		7.492535		23.882099		-29.850033		-1.980415		3.289748		6.818817		6.817648		1.150728		103.375604		-8.874336		29.801143		55.669153		95.935502		0.905117		-12.423671		-26.887939		99.249854		-5.591565		16.926350		51.628621		108.385048		-19.443929		-4.810765		2.658946		
1.858485		1.533583		-16.543290		86.547917		-0.009721		1.649703		1.313507		66.447650		-7.580313		3.673043		-121.571147		-1.421728		-4.805413		28.290168		53.077145		-10.795425		5.208625		-124.772468		-6.730144		8.303870		24.716732		-29.684255		-2.308508		3.353869		6.476962		6.844744		1.207556		102.460112		-9.091106		29.467813		55.771068		97.035596		1.091243		-12.498299		-26.385492		98.323304		-5.967743		16.709294		51.858536		109.000785		-18.850633		-4.769298		2.570086		
1.862399		1.334917		-16.325573		86.470377		-0.010038		1.649201		1.305922		66.478475		-7.717388		3.263647		-120.751321		-1.347355		-5.831757		27.940918		52.918899		-10.406501		4.872479		-123.838479		-5.272647		8.218467		25.019455		-29.548694		-2.468767		3.339913		6.041747		6.769013		1.157203		101.509306		-9.537396		29.520021		56.035010		97.390753		1.100647		-12.571095		-26.252103		97.259262		-6.427507		16.689177		52.189550		109.201830		-18.769985		-4.912623		2.554874		
1.866313		1.108178		-16.201517		86.262820		-0.009944		1.648448		1.298590		66.722555		-7.656215		2.829686		-119.932297		-1.936234		-7.922176		26.740698		52.901688		-10.145346		4.478979		-122.852582		-3.981147		8.214392		25.715150		-29.323085		-2.749228		3.357303		5.677460		6.763837		1.212415		100.388844		-9.811772		29.195416		56.283456		98.655059		0.835281		-12.462137		-25.858491		96.206589		-6.879011		16.500354		52.447650		109.884179		-18.414276		-4.919492		2.457626		
1.870227		1.022099		-15.979311		86.229432		-0.010113		1.647732		1.291113		66.730236		-7.713455		2.312204		-119.100753		-1.794566		-8.630543		26.396602		52.817271		-9.899853		4.206112		-121.835034		-2.878815		7.562876		25.922139		-29.228089		-2.823448		3.373515		5.280489		6.704403		1.159432		99.264433		-10.278521		29.133296		56.599645		98.957787		0.701274		-12.455015		-25.834581		95.083197		-7.373686		16.471053		52.752480		110.058833		-18.398309		-5.064832		2.415314		
1.874141		0.954248		-15.795216		86.146775		-0.010047		1.646883		1.283821		66.820704		-7.653458		1.740721		-118.247312		-1.907888		-9.778383		25.713003		52.831510		-9.776159		3.897469		-120.778118		-2.313841		6.465063		26.176418		-29.101923		-2.913641		3.435768		4.892338		6.664693		1.179650		98.056737		-10.670469		28.939037		56.893122		99.610324		0.381989		-12.176879		-25.870278		93.945717		-7.860137		16.347987		52.984829		110.396647		-18.293977		-5.110080		2.316695		
1.878056		0.964323		-15.534623		86.089413		-0.010007		1.646108		1.276549		66.769282		-7.559463		1.167045		-117.358943		-1.775582		-10.172116		25.464927		52.795164		-9.726710		3.711837		-119.673799		-2.074535		5.551199		26.213314		-29.090659		-2.941997		3.539753		4.525839		6.619821		1.148195		96.849327		-11.182848		28.829063		57.163156		99.794830		0.219722		-12.138780		-25.966993		92.806905		-8.393709		16.342528		53.218494		110.528883		-18.271921		-5.193233		2.283300		
1.881970		1.139155		-15.293564		86.030250		-0.009903		1.645231		1.269393		66.663081		-7.285160		0.442252		-116.393834		-1.615065		-10.765293		25.065968		52.856920		-9.898127		3.466819		-118.573981		-2.362169		3.379307		26.053482		-29.059520		-2.822929		3.734087		4.115725		6.646088		1.177396		95.553877		-11.525387		28.535923		57.311962		100.156396		-0.218702		-11.839483		-26.291202		91.594582		-8.850334		16.112820		53.405728		110.763340		-18.267466		-5.070118		2.162902		
1.885884		1.324565		-15.043766		86.005799		-0.009870		1.644325		1.262123		66.512889		-7.036074		-0.266583		-115.371586		-1.575255		-11.012166		24.400202		52.929989		-10.036018		3.270217		-117.442916		-2.934136		1.126640		25.597821		-29.057523		-2.665720		3.916260		3.670116		6.573738		1.172511		94.155633		-11.967089		28.202985		57.618113		100.700704		-0.579163		-11.686969		-26.744642		90.228714		-9.408634		15.823646		53.825536		111.264157		-18.107538		-4.847891		1.929521		
1.889798		1.513248		-14.788848		86.006817		-0.009808		1.643297		1.254950		66.363835		-6.792185		-0.927536		-114.333908		-1.518840		-10.771108		23.874533		53.008448		-10.177956		3.125530		-116.292308		-3.301548		-0.558782		24.871524		-29.079457		-2.501124		4.073543		3.291522		6.488996		1.180198		92.774110		-12.358318		27.776953		57.759151		101.080296		-0.795891		-11.692830		-27.183942		88.883743		-9.972554		15.524219		54.192429		111.748752		-17.943981		-4.572948		1.655636		
1.893712		1.632863		-14.590043		86.039211		-0.009883		1.641968		1.248050		66.307740		-6.610369		-1.484550		-113.255919		-1.544663		-10.303857		23.675817		53.195228		-10.200394		3.007431		-115.134959		-3.562364		-1.663298		24.137779		-29.081230		-2.355665		4.173743		3.078154		6.332331		1.234451		91.563702		-12.820717		27.518010		57.795499		101.416733		-0.807301		-11.629791		-27.441407		87.637026		-10.558143		15.331038		54.405501		112.144844		-17.797359		-4.234362		1.480976		
1.897626		1.824788		-14.349350		86.103131		-0.010130		1.640559		1.240462		66.128668		-6.491235		-2.105040		-112.164020		-1.797230		-9.613166		23.480055		53.254018		-10.299942		2.809491		-113.974578		-3.687188		-2.836326		23.266102		-29.063576		-2.101798		4.313517		2.622055		6.159043		1.194643		89.928707		-13.292463		26.906479		58.148759		101.705894		-0.921234		-11.687779		-27.791464		86.023437		-11.281523		15.089603		54.976813		112.592804		-17.667712		-3.971876		1.270377		
1.901540		2.067981		-14.263007		86.185482		-0.010049		1.638780		1.233185		66.094343		-6.211502		-2.657036		-111.032659		-1.954773		-8.297547		23.644271		53.552380		-10.416776		2.752906		-112.810803		-3.611675		-3.746612		21.978414		-28.912844		-1.829745		4.408409		2.211120		5.936539		1.210806		88.275069		-13.617486		26.054897		58.442622		102.225646		-0.676424		-11.366840		-28.147905		84.363150		-11.970936		14.607811		55.639149		113.162772		-17.404026		-3.337523		1.001642		
1.905455		2.206706		-14.076730		86.257766		-0.010242		1.636993		1.225854		65.995343		-6.099915		-3.147990		-109.903369		-2.363518		-7.290315		23.829961		53.706861		-10.471022		2.544653		-111.611022		-3.434621		-4.129881		21.066002		-28.862044		-1.626419		4.474919		1.882833		5.784288		1.171297		86.640447		-14.039079		25.365885		58.633705		102.549792		-0.536108		-11.213004		-28.458983		82.779692		-12.669927		14.284472		56.041892		113.526534		-17.204719		-2.956189		0.805132		
1.909369		2.352299		-13.849883		86.306224		-0.010330		1.635093		1.218519		65.828201		-5.904290		-3.569522		-108.728260		-2.861288		-6.265264		24.154039		53.803509		-10.558259		2.330429		-110.393346		-3.191414		-4.184025		20.482691		-28.853056		-1.467236		4.548015		1.516139		5.677894		1.151707		84.954802		-14.512803		24.715840		58.806526		102.759641		-0.478478		-11.101496		-28.749723		81.196726		-13.363160		13.992230		56.377078		113.694487		-17.111191		-2.671605		0.649923		
1.913283		2.544439		-13.672544		86.377863		-0.010574		1.632981		1.211196		65.674470		-5.703561		-3.977952		-107.518102		-3.287941		-4.882658		24.820272		53.986577		-10.676676		2.148327		-109.188898		-3.012630		-4.001300		19.883830		-28.799104		-1.218005		4.596418		1.156581		5.544560		1.172812		83.194614		-14.924996		23.971651		58.991501		103.293713		-0.380996		-10.825980		-29.132079		79.491418		-14.079892		13.564533		56.857857		113.908226		-16.995442		-2.077241		0.427421		
